<?xml version="1.0" encoding="UTF-8" standalone="no"?>
<svg
   xmlns:dc="http://purl.org/dc/elements/1.1/"
   xmlns:cc="http://creativecommons.org/ns#"
   xmlns:rdf="http://www.w3.org/1999/02/22-rdf-syntax-ns#"
   xmlns:svg="http://www.w3.org/2000/svg"
   xmlns="http://www.w3.org/2000/svg"
   version="1.1"
   id="svg61966"
   viewBox="0 0 270.71056 86.654862"
   height="24.455927mm"
   width="76.400536mm">
  <defs
     id="defs61968">
    <clipPath
       clipPathUnits="userSpaceOnUse"
       id="clipPath27452-77">
      <rect
         ry="2.3261709"
         y="101.99017"
         x="217.56181"
         height="48.514492"
         width="151.55969"
         id="rect27454-0"
         style="fill:#ffcc00;fill-rule:evenodd;stroke:#000000;stroke-width:3.48400545;stroke-linecap:butt;stroke-linejoin:miter;stroke-miterlimit:4;stroke-dasharray:none;stroke-opacity:1" />
    </clipPath>
    <clipPath
       id="clipPath28938-2"
       clipPathUnits="userSpaceOnUse">
      <rect
         style="fill:#ffcc00;fill-rule:evenodd;stroke:#000000;stroke-width:3.48400545;stroke-linecap:butt;stroke-linejoin:miter;stroke-miterlimit:4;stroke-dasharray:none;stroke-opacity:1"
         id="rect28940-0"
         width="151.55969"
         height="48.514492"
         x="217.56181"
         y="101.99017"
         ry="2.3261709" />
    </clipPath>
  </defs>
  <metadata
     id="metadata61971">
    <rdf:RDF>
      <cc:Work
         rdf:about="">
        <dc:format>image/svg+xml</dc:format>
        <dc:type
           rdf:resource="http://purl.org/dc/dcmitype/StillImage" />
        <dc:title></dc:title>
      </cc:Work>
    </rdf:RDF>
  </metadata>
  <g
     transform="translate(-88.898582,-158.48633)"
     id="layer1">
    <g
       id="g4473">
      <rect
         ry="4.1549239"
         y="158.48633"
         x="88.898582"
         height="86.654861"
         width="270.71054"
         id="rect4621"
         style="fill:#ffcc00;fill-rule:evenodd;stroke:none;stroke-width:3.48400545;stroke-linecap:butt;stroke-linejoin:miter;stroke-miterlimit:4;stroke-dasharray:none;stroke-opacity:1" />
      <path
         id="path4623"
         d="m 344.07617,106.68164 c -0.53454,0 -0.87366,0.042 -1.01758,0.12891 -0.14392,0.0652 -0.21679,0.29448 -0.21679,0.68554 l 0,18.64258 -19,-19 c 0,-0.30131 -0.18586,-0.45117 -0.5586,-0.45117 l -14.56836,0 c -0.35202,0 -0.52734,0.18295 -0.52734,0.54883 l 0,8.10937 -2.42773,-2.42773 c 0,-1.61417 -0.73486,-3.03495 -2.20508,-4.26172 -1.44952,-1.22677 -3.2929,-1.83984 -5.5293,-1.83984 -3.43743,0 -5.82785,0.91474 -7.17383,2.74414 -0.849,1.14068 -1.27344,2.68018 -1.27344,4.61718 0,0.92006 0.26952,1.88542 0.79493,2.89649 l -9.83789,-9.83789 c -0.0621,-0.32284 -0.26907,-0.48438 -0.6211,-0.48438 l -6.67773,0 c -0.33132,0 -0.53827,0.16154 -0.6211,0.48438 l -3.83203,17.91601 -18.14258,-18.14257 c -0.0221,-0.18267 -0.10912,-0.29102 -0.29101,-0.29102 l -3.94531,0 c -0.20708,0 -0.31055,0.11872 -0.31055,0.35547 l 0,6.56836 -4.55664,-4.55664 c 0.007,-0.23391 0.0273,-0.50717 0.0273,-0.72071 0,-0.55958 -0.17727,-0.96829 -0.52929,-1.22656 -0.35203,-0.25827 -0.96231,-0.38672 -1.83204,-0.38672 l -9.25585,0 c -1.53235,0 -2.67056,0.40871 -3.41602,1.22657 -0.62123,0.66719 -0.93359,1.57025 -0.93359,2.71093 l 0,17.72461 c 0,0.51654 0.0738,1.06538 0.21875,1.64649 0.0414,0.17218 0.10272,0.36485 0.18554,0.58007 0.60052,1.93702 1.74927,3.30524 3.44727,4.10157 0.8799,0.41978 1.98519,0.68318 3.28711,0.81054 l 63.57226,63.57227 0,-5.99023 4.47266,4.47265 0,-7.80664 16.42578,16.42578 15.5625,0 -4.55078,-4.55078 1.84766,0 -8.69727,-8.69726 0,-0.66602 9.03906,9.03906 0,-1.88672 4.53516,4.53516 0,-0.5293 2.85352,2.85352 3.41601,0 -3.25781,-3.25781 0.20117,-0.93555 3.70898,3.70898 1.11719,-5.29492 4.42774,0 5.29492,5.29492 -0.0371,-0.17382 0.6582,0.6582 3.44727,0 -5.02735,-5.02734 -0.1582,-0.75196 -3.90625,-3.90625 0.32617,0 9.20117,9.20117 -2.33203,-10.91015 4.32422,4.32422 0,-0.35547 -4.42187,-4.42188 -0.35352,-1.65234 5.39649,5.39648 3.04492,0 c -39.0717,-43.37518 -15.2298,-23.90422 16.90039,8.07032 l 15.7168,0 -4.61524,-4.61524 0.91797,0 4.19531,4.19531 0,-3.74414 -11.00781,-11.00781 5.97461,0 -3.48828,-3.48828 1.42383,0 2.84179,2.8418 0,-2.04493 6.42578,6.42579 0.7168,0 3.76172,0 10.92187,10.92187 0,-0.11719 0.80274,0.80274 9.25195,0 -4.33398,-4.33399 3.09961,0 -4.34766,-4.34765 0,-4.28907 -4.47266,-4.47265 0,-1.71289 5.27344,5.27343 3.36133,0 -3.29102,-3.29101 3.23047,0 -3.97851,-3.97852 0,-3.4414 8.82031,8.82031 0.0918,-0.16211 -8.91211,-8.91211 0,-0.0508 c -71.35688,-70.96788 -59.44824,-60.35191 -3.36133,-4.16992 l 0.57227,0 3.71484,3.71484 1.60351,0 -3.71484,-3.71484 6.27344,0 -63.86328,-63.86328 0,-0.004 c 0,-1.99875 -0.61801,-3.64007 -1.85157,-4.92187 -1.23355,-1.28181 -2.89905,-1.92188 -4.99609,-1.92188 l -8.44922,0 z m -67.40429,4.61133 0.16601,0.043 c 0.0828,0.0215 0.13552,0.0974 0.15625,0.22656 l 0.0137,0.0664 -0.33593,-0.33594 z"
         clip-path="url(#clipPath27452-77)"
         style="color:#000000;font-style:normal;font-variant:normal;font-weight:normal;font-stretch:normal;font-size:medium;line-height:normal;font-family:Sans;-inkscape-font-specification:Sans;text-indent:0;text-align:start;text-decoration:none;text-decoration-line:none;letter-spacing:normal;word-spacing:normal;text-transform:none;direction:ltr;block-progression:tb;writing-mode:lr-tb;baseline-shift:baseline;text-anchor:start;visibility:visible;opacity:1;fill:#e6b800;fill-opacity:1;fill-rule:nonzero;stroke:none;stroke-width:9.40495491;stroke-opacity:1;marker:none"
         transform="matrix(1.7861645,0,0,1.7861645,-299.70259,-23.684922)" />
      <path
         id="path4625"
         d="m 285.17173,186.64531 0.90635,0.90637 4.79273,4.79272 -4.80332,4.80329 -0.90635,0.90637 1.28018,0 7.52942,0 0.21863,0 0.15523,-0.15523 c 1.72565,-1.72566 3.45145,-3.4515 5.17713,-5.17716 l 0.37381,-0.37381 -0.37381,-0.37734 c -1.63058,-1.63696 -3.47074,-3.46981 -5.16655,-5.16656 l -0.15523,-0.1586 -0.21866,0 -7.52588,0 -1.28369,0 z m 4.22492,0.86052 c 0.32628,0 0.59249,0.26618 0.59249,0.59246 0,0.32629 -0.26621,0.58898 -0.59249,0.58898 -0.32625,0 -0.58895,-0.26269 -0.58895,-0.58898 0,-0.32628 0.2627,-0.59246 0.58895,-0.59246 z m 1.41772,0 c 0.32628,0 0.59249,0.26618 0.59249,0.59246 0,0.32629 -0.26621,0.58898 -0.59249,0.58898 -0.32628,0 -0.58894,-0.26269 -0.58894,-0.58898 0,-0.32628 0.26266,-0.59246 0.58894,-0.59246 z m 1.41773,0 c 0.32626,0 0.59247,0.26618 0.59247,0.59246 0,0.32629 -0.26621,0.58898 -0.59247,0.58898 -0.32628,0 -0.58897,-0.26269 -0.58897,-0.58898 0,-0.32628 0.26269,-0.59246 0.58897,-0.59246 z m -2.83545,1.41769 c 0.32628,0 0.59249,0.26625 0.59249,0.5925 0,0.32628 -0.26621,0.58895 -0.59249,0.58895 -0.32625,0 -0.58895,-0.26267 -0.58895,-0.58895 0,-0.32625 0.2627,-0.5925 0.58895,-0.5925 z m 1.41772,0 c 0.32628,0 0.59249,0.26625 0.59249,0.5925 0,0.32628 -0.26621,0.58895 -0.59249,0.58895 -0.32628,0 -0.58894,-0.26267 -0.58894,-0.58895 0,-0.32625 0.26266,-0.5925 0.58894,-0.5925 z m 1.41773,0 c 0.32626,0 0.59247,0.26625 0.59247,0.5925 0,0.32628 -0.26621,0.58895 -0.59247,0.58895 -0.32628,0 -0.58897,-0.26267 -0.58897,-0.58895 0,-0.32625 0.26269,-0.5925 0.58897,-0.5925 z m -1.41773,1.41771 c 0.32628,0 0.59249,0.2662 0.59249,0.59252 0,0.32628 -0.26621,0.58895 -0.59249,0.58895 -0.32628,0 -0.58894,-0.26267 -0.58894,-0.58895 0,-0.32632 0.26266,-0.59252 0.58894,-0.59252 z m -1.41772,1.41773 c -0.32625,0 -0.58895,0.2662 -0.58895,0.59248 0,0.32625 0.2627,0.58895 0.58895,0.58895 0.32628,0 0.59249,-0.2627 0.59249,-0.58895 0,-0.32628 -0.26621,-0.59248 -0.59249,-0.59248 z m 2.83545,1.41772 c 0.32626,0 0.59247,0.2662 0.59247,0.59246 0,0.32628 -0.26621,0.58897 -0.59247,0.58897 -0.32628,0 -0.58897,-0.26269 -0.58897,-0.58897 0,-0.32626 0.26269,-0.59246 0.58897,-0.59246 z m -1.41773,1.41773 c 0.32628,0 0.59249,0.2662 0.59249,0.59246 0,0.32627 -0.26621,0.58894 -0.59249,0.58894 -0.32628,0 -0.58894,-0.26267 -0.58894,-0.58894 0,-0.32626 0.26266,-0.59246 0.58894,-0.59246 z m -1.41772,1.41772 c 0.32628,0 0.59249,0.26618 0.59249,0.59246 0,0.32628 -0.26621,0.58895 -0.59249,0.58895 -0.32625,0 -0.58895,-0.26267 -0.58895,-0.58895 0,-0.32628 0.2627,-0.59246 0.58895,-0.59246 z"
         style="color:#000000;font-style:normal;font-variant:normal;font-weight:normal;font-stretch:normal;font-size:medium;line-height:normal;font-family:Sans;-inkscape-font-specification:Sans;text-indent:0;text-align:start;text-decoration:none;text-decoration-line:none;letter-spacing:normal;word-spacing:normal;text-transform:none;direction:ltr;block-progression:tb;writing-mode:lr-tb;baseline-shift:baseline;text-anchor:start;display:inline;overflow:visible;visibility:visible;fill:#ffffff;fill-opacity:1;fill-rule:nonzero;stroke:none;stroke-width:9.40495491;marker:none;enable-background:accumulate" />
      <path
         id="path4628"
         style="font-style:normal;font-variant:normal;font-weight:normal;font-stretch:normal;font-size:117.31008911px;line-height:125%;font-family:FE-Font;-inkscape-font-specification:FE-Font;letter-spacing:0px;word-spacing:0px;fill:#ffffff;fill-opacity:1;stroke:none;stroke-width:1px;stroke-linecap:butt;stroke-linejoin:miter;stroke-opacity:1"
         d="m 134.54424,202.97325 q 0,7.66928 -4.4939,11.82106 -4.16101,3.80581 -10.81863,3.80581 -5.71446,0 -9.09876,-1.61458 -4.54936,-2.13355 -6.1583,-7.32329 -0.22192,-0.57663 -0.33287,-1.03795 -0.38837,-1.55692 -0.38837,-2.94085 l 0,-31.65736 q 0,-3.05617 1.66442,-4.84375 1.99727,-2.19123 6.10281,-2.19123 l 16.53309,0 q 2.33018,0 3.27335,0.69198 0.94316,0.69196 0.94316,2.19122 0,2.9985 -0.49932,7.49627 -0.16647,1.55691 -0.5548,4.15178 0,0.8073 -0.72125,0.8073 l -4.88225,0 q -0.88769,0 -1.16508,-0.34598 -0.27741,-0.34598 -0.27741,-1.09561 l 0,-7.6116 -9.15424,0 q -1.6644,0 -2.49661,0.57662 -0.77671,0.51898 -0.77671,2.30655 l 0,26.81361 q 0,3.69048 1.94181,5.93936 1.99727,2.19123 5.38157,2.19123 2.44113,0 3.77265,-0.69196 1.33153,-0.6343 2.60757,-2.01824 1.27605,-1.44158 1.77537,-3.51748 0.33287,-1.38393 0.33287,-3.57515 0,-0.46131 0.88769,-0.46131 l 5.38159,0 q 0.77671,0 0.99864,0.40366 0.22191,0.40363 0.22191,1.72989 z" />
      <path
         id="path4631"
         style="font-style:normal;font-variant:normal;font-weight:normal;font-stretch:normal;font-size:117.31008911px;line-height:125%;font-family:FE-Font;-inkscape-font-specification:FE-Font;letter-spacing:0px;word-spacing:0px;fill:#ffffff;fill-opacity:1;stroke:none;stroke-width:1px;stroke-linecap:butt;stroke-linejoin:miter;stroke-opacity:1"
         d="m 172.26125,214.39067 q 0,1.7299 -0.77673,2.71018 -0.99864,1.26861 -3.10689,1.26861 l -27.79558,0 q -0.72123,0 -0.72123,-0.74962 l 0,-50.05209 q 0,-0.63429 0.5548,-0.63429 l 7.04597,0 q 0.5548,0 0.5548,0.63429 l 0,41.57552 q 0,1.0956 0.6103,1.0956 l 14.92417,0 q 0.61028,0 0.61028,-0.57662 l 0,-6.80433 q 0,-0.57663 0.72123,-0.57663 l 6.1583,0 q 1.22058,0 1.22058,0.57663 l 0,11.53275 z" />
      <path
         id="path4633"
         style="font-style:normal;font-variant:normal;font-weight:normal;font-stretch:normal;font-size:117.31008911px;line-height:125%;font-family:FE-Font;-inkscape-font-specification:FE-Font;letter-spacing:0px;word-spacing:0px;fill:#ffffff;fill-opacity:1;stroke:none;stroke-width:1px;stroke-linecap:butt;stroke-linejoin:miter;stroke-opacity:1"
         d="m 212.03101,217.67749 q 0.11092,0.86496 -0.77671,0.86496 l -6.15831,0 q -0.88768,0 -1.10961,-0.86496 l -1.99728,-9.45685 -15.36801,0 -1.99729,9.45685 q -0.22194,0.86496 -1.16508,0.86496 l -6.10282,0 q -0.3329,0 -0.61031,-0.28831 -0.22191,-0.28832 -0.16646,-0.57665 l 10.65221,-49.82141 q 0.2219,-0.86497 1.1096,-0.86497 l 11.92822,0 q 0.94318,0 1.10962,0.86497 l 10.65219,49.82141 z M 198.8822,201.24336 q 0.94316,0 1.10961,-0.17291 0.22192,-0.23067 0.22192,-0.6343 -0.0556,-0.46131 -0.0556,-0.69196 l -5.10419,-24.16109 q -0.0556,-0.34598 -0.2774,-0.40365 -0.22192,-0.0577 -0.44383,-0.11539 -0.22193,0 -0.49932,0.0577 -0.27741,0.0577 -0.33289,0.46132 l -5.0487,24.16109 q -0.22192,0.98026 0.16648,1.21093 0.2774,0.28831 1.10961,0.28831 l 9.15422,0 z" />
      <path
         id="path4636"
         style="font-style:normal;font-variant:normal;font-weight:normal;font-stretch:normal;font-size:117.31008911px;line-height:125%;font-family:FE-Font;-inkscape-font-specification:FE-Font;letter-spacing:0px;word-spacing:0px;fill:#ffffff;fill-opacity:1;stroke:none;stroke-width:1px;stroke-linecap:butt;stroke-linejoin:miter;stroke-opacity:1"
         d="m 247.10142,205.45279 q 0,5.76637 -4.49389,9.34152 -4.43841,3.63283 -11.31795,3.63283 -5.99186,0 -10.48577,-2.99854 -5.21514,-3.51746 -5.21514,-9.5145 l 0,-0.63429 q 0,-0.40365 0,-0.8073 0.11092,-0.40365 1.1096,-0.40365 l 5.43707,0 q 0.77671,0 0.77671,0.69197 0,1.21095 0.22193,2.19123 0.2774,0.98028 1.33154,1.90289 1.05413,0.92263 2.774,1.4416 1.71988,0.51896 4.38295,0.51896 4.66032,0 6.49117,-1.84524 1.22056,-1.21096 1.22056,-3.22918 0,-3.17149 -5.82542,-7.32329 -1.60892,-1.15327 -6.1583,-4.03644 -4.54938,-2.8832 -7.48982,-7.38096 -2.33018,-3.57514 -2.33018,-6.74666 0,-5.18972 2.27471,-8.24588 3.60619,-4.90142 12.81591,-4.90142 5.99186,0 9.87548,3.28682 3.93909,3.28683 3.93909,7.61159 l 0,1.55693 q 0,0.46131 -0.38837,0.46131 l -5.99185,0 q -0.49932,0 -0.49932,-0.46131 0,-0.92263 -0.33289,-2.0182 -0.33287,-1.15327 -1.16508,-2.01825 -0.83222,-0.92261 -2.33018,-1.49926 -1.49796,-0.57663 -2.94043,-0.57663 -2.88499,0 -5.15966,1.49924 -2.27469,1.49926 -2.27469,3.8058 0,2.42189 1.83084,4.44011 1.387,1.55694 4.71582,3.74815 5.43707,3.57515 6.38022,4.26711 4.32745,3.22917 6.32475,6.11235 2.49659,3.63281 2.49659,8.13058 z" />
      <path
         id="path4638"
         style="font-style:normal;font-variant:normal;font-weight:normal;font-stretch:normal;font-size:117.31008911px;line-height:125%;font-family:FE-Font;-inkscape-font-specification:FE-Font;letter-spacing:0px;word-spacing:0px;fill:#ffffff;fill-opacity:1;stroke:none;stroke-width:1px;stroke-linecap:butt;stroke-linejoin:miter;stroke-opacity:1"
         d="m 281.28504,217.73516 q 0,0.17307 0,0.40365 -0.16648,0.34598 -0.88768,0.34598 l -28.07298,0 q -0.99866,0 -1.27605,-0.28832 -0.27741,-0.28833 -0.27741,-1.38392 l 0,-48.95647 q 0,-0.98028 0.94316,-0.98028 l 26.02022,0 q 0.99864,0 0.99864,0.80729 l 0,4.78609 q 0,0.80729 -1.16507,0.80729 l -18.14204,0 q -0.94315,0 -1.05412,0.74962 -0.11092,0.69197 -0.11092,2.13355 l 0,7.89994 q 0,0.69195 0.22193,0.9226 0.22192,0.17308 1.27604,0.17308 l 12.3166,0 q 0.77672,0 1.16508,0.34599 0.44384,0.28831 0.44384,0.80729 l 0,3.92113 q 0,0.69196 -0.44384,0.92263 -0.44384,0.23063 -0.94316,0.23063 l -11.98372,0 q -1.55345,0 -1.83084,0.11539 -0.22193,0.11539 -0.22193,1.09563 l 0,16.83779 q 0,0.80727 1.49797,0.80727 l 20.30574,0 q 1.22057,0 1.22057,0.8073 l 0,6.68899 z" />
      <path
         id="path4642"
         style="font-style:normal;font-variant:normal;font-weight:normal;font-stretch:normal;font-size:117.439888px;line-height:125%;font-family:FE-Font;-inkscape-font-specification:FE-Font;letter-spacing:0px;word-spacing:0px;fill:#ffffff;fill-opacity:1;stroke:none;stroke-width:1px;stroke-linecap:butt;stroke-linejoin:miter;stroke-opacity:1"
         d="m 344.28832,203.30313 q 0,5.58796 -3.13974,10.01176 -3.85583,5.47154 -10.52089,5.47154 l -16.52496,0 q -1.43217,0 -1.43217,-1.22237 l 0,-49.24386 q 0,-1.04774 0.38559,-1.22237 0.38558,-0.23283 1.81774,-0.23283 l 15.0928,0 q 5.61848,0 8.92348,3.43427 3.30499,3.43426 3.30499,8.78939 0,3.20143 -1.43216,6.46107 -1.43216,3.20143 -3.96599,4.77305 l -0.16525,0.29104 q 0.0551,0.29104 0.16525,0.29104 3.13974,1.68802 5.39815,5.64616 2.09316,3.6671 2.09316,6.75211 z m -10.13531,-20.60558 q 0.16525,-0.6985 0.16525,-1.86265 0,-1.97907 -0.60591,-3.43427 -0.82625,-1.97907 -2.644,-2.91039 -0.99149,-0.46567 -2.53382,-0.6985 -1.54233,-0.29104 -3.13975,-0.29104 l -2.86432,0 q -0.82625,0 -1.26692,0.17463 -0.38558,0.11641 -0.38558,0.64028 l 0,12.80573 q 0,0.98954 1.10166,0.98954 l 6.00407,0 q 3.24991,0 4.84733,-2.09548 0.82624,-1.10595 1.32199,-3.31785 z m 1.81775,21.71153 q 0.16525,-0.87312 0.16525,-1.86265 0,-1.62982 -0.55084,-3.08502 -0.49574,-1.45519 -1.81774,-3.0268 -0.88133,-1.04775 -2.53383,-1.74624 -1.65249,-0.6985 -3.13974,-0.6985 l -6.00407,0 q -0.9915,0 -1.21183,0.40746 -0.22033,0.34925 -0.22033,1.22237 l 0,14.31913 q 0,1.10595 1.04658,1.10595 l 6.72015,0 q 2.97449,0 5.17782,-2.27011 1.87283,-1.92085 2.36858,-4.36559 z" />
      <path
         clip-path="url(#clipPath28938-2)"
         id="path4644"
         d="m 282.125,139.41602 0,6.37304 14.14258,14.14258 1.17383,0 -1.17383,-1.17383 0,-0.0742 0.64258,0.64258 0.4375,0 -0.4375,-0.4375 0,-0.76562 0.7832,0.7832 0,-0.54883 0.65234,0.65235 0,-0.91211 1.83399,1.83398 0.65234,0 0,-0.68945 0.68945,0.68945 0.66211,0 0,-1.9668 1.82618,1.82618 0,-0.0449 0.18554,0.18555 0.46485,0 0,-1.85156 1.85156,1.85156 1.19336,0 -1.19336,-1.19336 0,-0.11133 0.65234,0.65235 0.34571,0 -0.34571,-0.34571 0,-0.66992 0.68946,0.68945 0,-0.48437 0.6621,0.66211 0,-1.52539 2.13868,2.13867 0,-0.008 0.19531,0.19531 0.45703,0 0,-2.56641 2.42578,2.42579 0,-0.0469 0.1875,0.1875 0.50196,0 0,-2.20508 2.20507,2.20508 1.46289,0 -0.65234,-0.65234 1.21094,0 -1.36914,-1.36914 0,-0.83789 -0.65235,-0.65235 0,-0.31836 0.81055,0.81055 0.27148,0.01 -1.08203,-1.08204 0,-0.23242 0.65235,0.65235 0.98828,0 -0.98828,-0.98829 c -0.42542,-0.38101 0.44093,-1.30906 0.0371,-1.71289 l 1.21093,0 -14.09765,-14.09961 c -0.003,-0.0253 -0.0119,-0.043 -0.043,-0.043 l -1.70508,0 c -0.0497,0 -0.0972,0.0194 -0.14062,0.0566 -0.0373,0.0311 -0.0547,0.075 -0.0547,0.13086 l 0,0.78906 -0.97656,-0.97656 -2.63672,0 c -0.0559,0 -0.10141,0.0194 -0.13867,0.0566 -0.0373,0.0373 -0.0566,0.0848 -0.0566,0.14062 l 0,0.44531 0.91211,0.91211 0,0.0879 -1.64257,-1.64257 -0.48438,0 c -0.0125,0 -0.0477,0.0122 -0.10351,0.0371 -0.0559,0.0186 -0.0892,0.0784 -0.10157,0.17774 l -0.125,0.71289 -0.71484,-0.71289 c -0.0187,-0.10555 -0.0555,-0.16688 -0.11133,-0.18555 -0.0559,-0.0186 -0.0892,-0.0293 -0.10156,-0.0293 l -0.47656,0 0.57226,2.7207 -1.92773,-1.92774 c 0,-0.11179 -0.021,-0.21347 -0.0645,-0.30664 -0.0435,-0.0994 -0.1032,-0.18364 -0.17773,-0.25195 -0.0683,-0.0745 -0.15258,-0.1307 -0.25195,-0.16797 -0.0994,-0.0435 -0.20462,-0.0644 -0.31641,-0.0644 l -1.19141,0 0,2.10156 -1.85156,-1.85156 c 0,-0.0496 -0.0194,-0.10227 -0.0566,-0.1582 -0.0373,-0.0621 -0.1057,-0.0937 -0.20508,-0.0937 l -0.39062,0 0,2.61914 -1.82617,-1.82618 c 0,-0.11179 -0.021,-0.21542 -0.0645,-0.30859 -0.0435,-0.0994 -0.10321,-0.18168 -0.17773,-0.25 -0.0683,-0.0745 -0.15259,-0.1307 -0.25195,-0.16797 -0.0994,-0.0435 -0.20462,-0.0664 -0.31641,-0.0664 l -1.19141,0 0,2.74023 -1.83789,-1.83789 c -0.004,-0.59974 -0.30433,-0.90234 -0.90234,-0.90234 z"
         style="font-style:normal;font-variant:normal;font-weight:normal;font-stretch:normal;font-size:medium;line-height:125%;font-family:Ailerons;-inkscape-font-specification:Ailerons;letter-spacing:0px;word-spacing:0px;opacity:1;fill:#cfa600;fill-opacity:1;stroke:none;stroke-width:1px;stroke-linecap:butt;stroke-linejoin:miter;stroke-opacity:1"
         transform="matrix(1.7861645,0,0,1.7861645,-299.70259,-23.684922)" />
      <path
         id="path4648"
         style="font-style:normal;font-variant:normal;font-weight:normal;font-stretch:normal;font-size:medium;line-height:125%;font-family:Ailerons;-inkscape-font-specification:Ailerons;letter-spacing:0px;word-spacing:0px;fill:#ffffff;fill-opacity:1;stroke:none;stroke-width:1px;stroke-linecap:butt;stroke-linejoin:miter;stroke-opacity:1"
         d="m 206.76616,227.16675 q 0,-0.39935 -0.1664,-0.56578 -0.1664,-0.18303 -0.44929,-0.18303 l -0.78208,0 0,9.21862 0.78208,0 q 0.28289,0 0.44929,-0.16642 0.1664,-0.18303 0.1664,-0.58238 l 0,-7.72101 z m -0.44928,-1.83038 q 1.61408,0 1.61408,1.6307 l 0,8.10372 q 0,1.64735 -1.61408,1.64735 l -2.09665,0 0,-11.38177 2.09665,0 0,0 z" />
      <path
         id="path4650"
         style="font-style:normal;font-variant:normal;font-weight:normal;font-stretch:normal;font-size:medium;line-height:125%;font-family:Ailerons;-inkscape-font-specification:Ailerons;letter-spacing:0px;word-spacing:0px;fill:#ffffff;fill-opacity:1;stroke:none;stroke-width:1px;stroke-linecap:butt;stroke-linejoin:miter;stroke-opacity:1"
         d="m 212.98902,230.74436 q 0.2496,0 0.43264,-0.13313 0.18304,-0.14973 0.18304,-0.53248 l 0,-2.99519 q 0,-0.33281 -0.18304,-0.44929 -0.18304,-0.13314 -0.43264,-0.13314 l -0.61569,0 0,4.24323 0.61569,0 0,0 z m 1.79713,5.97378 -1.18145,0 0,-4.16 q 0,-0.43264 -0.18304,-0.58242 -0.18304,-0.14974 -0.43264,-0.14974 l -0.61569,0 0,4.89216 -1.1648,0 0,-11.38177 2.12993,0 q 0.29952,0 0.56576,0.11644 0.26624,0.0998 0.44928,0.29956 0.19968,0.18303 0.31616,0.44925 0.11649,0.24962 0.11649,0.54913 l 0,3.52772 q 0,0.33276 -0.0832,0.53244 -0.0666,0.19972 -0.14977,0.29956 -0.0998,0.11648 -0.21632,0.16638 0.11649,0.0665 0.21632,0.21632 0.0832,0.13313 0.14977,0.34946 0.0832,0.19967 0.0832,0.51584 l 0,4.35967 z" />
      <path
         id="path4652"
         style="font-style:normal;font-variant:normal;font-weight:normal;font-stretch:normal;font-size:medium;line-height:125%;font-family:Ailerons;-inkscape-font-specification:Ailerons;letter-spacing:0px;word-spacing:0px;fill:#ffffff;fill-opacity:1;stroke:none;stroke-width:1px;stroke-linecap:butt;stroke-linejoin:miter;stroke-opacity:1"
         d="m 218.74596,225.33637 q 0.26624,0 0.36608,0.16638 0.0998,0.14978 0.0998,0.28287 l 0,10.93252 -0.832,0 q -0.19968,0 -0.26624,-0.0832 -0.0499,-0.0832 -0.0666,-0.16639 l 0,-11.13219 0.69888,0 0,0 z" />
      <path
         id="path4654"
         style="font-style:normal;font-variant:normal;font-weight:normal;font-stretch:normal;font-size:medium;line-height:125%;font-family:Ailerons;-inkscape-font-specification:Ailerons;letter-spacing:0px;word-spacing:0px;fill:#ffffff;fill-opacity:1;stroke:none;stroke-width:1px;stroke-linecap:butt;stroke-linejoin:miter;stroke-opacity:1"
         d="m 224.91474,227.08356 q 0,-0.33281 -0.18304,-0.44929 -0.18304,-0.13314 -0.43264,-0.13314 l -0.61568,0 0,3.99362 0.61568,0 q 0.2496,0 0.43264,-0.13309 0.18304,-0.14978 0.18304,-0.53249 l 0,-2.74561 z m 0,5.14177 q 0,-0.3827 -0.18304,-0.51583 -0.18304,-0.14978 -0.43264,-0.14978 l -0.61568,0 0,3.99361 0.61568,0 q 0.2496,0 0.43264,-0.11648 0.18304,-0.13309 0.18304,-0.4659 l 0,-2.74562 z m 0.51584,-1.1981 q 0.18305,0.0666 0.33281,0.19972 0.13312,0.11644 0.23296,0.29952 0.0998,0.16638 0.0998,0.43264 l 0,3.328 q 0,0.59903 -0.43265,1.01503 -0.416,0.416 -1.01504,0.416 l -2.12993,0 0,-5.65761 0,-0.0331 0,-0.0166 0,-0.0166 0,-5.65761 2.12993,0 q 0.29952,0 0.56576,0.11644 0.26625,0.0998 0.44928,0.29955 0.19969,0.18303 0.31617,0.44925 0.11648,0.24962 0.11648,0.54914 l 0,3.34464 q 0,0.28291 -0.0998,0.44929 -0.0998,0.16639 -0.23296,0.28287 -0.14976,0.13313 -0.33281,0.19968 z" />
      <path
         id="path4656"
         style="font-style:normal;font-variant:normal;font-weight:normal;font-stretch:normal;font-size:medium;line-height:125%;font-family:Ailerons;-inkscape-font-specification:Ailerons;letter-spacing:0px;word-spacing:0px;fill:#ffffff;fill-opacity:1;stroke:none;stroke-width:1px;stroke-linecap:butt;stroke-linejoin:miter;stroke-opacity:1"
         d="m 232.47895,225.33637 -1.39776,6.63935 0,4.74242 -0.81537,0 q -0.14976,0 -0.2496,-0.0998 -0.0998,-0.0998 -0.0998,-0.23297 l 0,-4.40961 -1.39777,-6.63935 0.84865,0 q 0.0333,0 0.18304,0.0499 0.14976,0.0499 0.19968,0.33281 l 0.7488,4.32642 0.74881,-4.32642 q 0.0333,-0.26627 0.18304,-0.31617 0.14976,-0.0665 0.18304,-0.0665 l 0.86528,0 z" />
      <path
         id="path4658"
         style="font-style:normal;font-variant:normal;font-weight:normal;font-stretch:normal;font-size:medium;line-height:125%;font-family:Ailerons;-inkscape-font-specification:Ailerons;letter-spacing:0px;word-spacing:0px;fill:#ffffff;fill-opacity:1;stroke:none;stroke-width:1px;stroke-linecap:butt;stroke-linejoin:miter;stroke-opacity:1"
         d="m 238.84377,225.33637 q -0.0998,0.21628 -0.23296,0.49919 -0.11648,0.26622 -0.14976,0.33281 -0.0499,0.11644 -0.19968,0.21632 -0.13312,0.0998 -0.416,0.0998 l -0.91521,0 q -0.13311,0 -0.21631,0.0832 -0.0666,0.0832 -0.0666,0.19968 l 0,9.95074 -0.89856,0 q -0.19968,0 -0.26624,-0.0832 -0.0499,-0.0998 -0.0666,-0.16639 l 0,-9.98403 -1.63073,0 0,-0.79875 q 0,-0.14973 0.0999,-0.24957 0.0998,-0.0998 0.2496,-0.0998 l 4.70913,0 z" />
      <path
         id="path4660"
         style="font-style:normal;font-variant:normal;font-weight:normal;font-stretch:normal;font-size:medium;line-height:125%;font-family:Ailerons;-inkscape-font-specification:Ailerons;letter-spacing:0px;word-spacing:0px;fill:#ffffff;fill-opacity:1;stroke:none;stroke-width:1px;stroke-linecap:butt;stroke-linejoin:miter;stroke-opacity:1"
         d="m 241.75084,235.55333 2.4461,0 q 0.11648,0 0.0832,0.13313 -0.0333,0.11649 -0.13312,0.28287 -0.0832,0.14978 -0.19968,0.28291 -0.0999,0.13309 -0.13313,0.14974 -0.0499,0.11648 -0.19968,0.21632 -0.13312,0.0998 -0.416,0.0998 l -2.61249,0 0,-11.049 q 0,-0.14974 0.0998,-0.23293 0.11648,-0.0998 0.2496,-0.0998 l 3.04513,0 q 0.11648,0 0.0832,0.13309 -0.0333,0.11648 -0.13312,0.26626 -0.0832,0.14974 -0.19968,0.28287 -0.0998,0.13313 -0.13312,0.14978 -0.0499,0.11644 -0.19968,0.23293 -0.13312,0.0998 -0.416,0.0998 l -0.94849,0 q -0.11648,0 -0.19968,0.0832 -0.0832,0.0665 -0.0832,0.18303 l 0,3.39458 1.76385,0 q 0.11648,0 0.0832,0.13309 -0.0166,0.11649 -0.11648,0.28291 -0.0832,0.14974 -0.19968,0.28287 -0.11648,0.13313 -0.14976,0.14978 -0.0499,0.13309 -0.19968,0.23293 -0.13312,0.0998 -0.416,0.0998 l -0.48257,-0.0166 q -0.11648,0 -0.19968,0.0832 -0.0832,0.0832 -0.0832,0.19968 l 0,3.94367 z" />
    </g>
  </g>
  <g
     transform="translate(-3.5433094,-3.5433115)"
     id="layer3" />
</svg>
